<?xml version="1.0" encoding="UTF-8"?>
<svg width="72px" height="72px" viewBox="0 0 72 72" version="1.1" xmlns="http://www.w3.org/2000/svg" xmlns:xlink="http://www.w3.org/1999/xlink">
    <!-- Generator: Sketch 50 (54983) - http://www.bohemiancoding.com/sketch -->
    <title>头像-线</title>
    <desc>Created with Sketch.</desc>
    <defs></defs>
    <g id="头像-线" stroke="none" stroke-width="1" fill="none" fill-rule="evenodd">
        <path d="M26.19369,73.1247138 C29.8263568,69.2346689 31.0372458,66.7866392 29.8263568,65.7806248 C28.0100234,64.2716031 7.52487096,55.2201104 7.52487096,41.639131 C7.52487096,28.0581515 15.3133133,13.592707 29.8263568,12.4620423 C44.3394004,11.3313775 57.5047885,18.235427 62.1205223,30.3957185 C65.1976782,38.5025795 61.4952513,49.6522671 51.0132415,63.8447812 C49.9036884,67.0603559 51.2796151,70.1536668 55.1410216,73.1247138 C55.1410216,73.1247138 45.4919111,73.1247138 26.19369,73.1247138 Z" id="Path" stroke="#1E3E3F" stroke-width="2"></path>
        <path d="M22.1562309,24.5599605 C24.6191306,22.7366511 27.8148787,22.2808237 31.7434753,23.1924784" id="Path-2" stroke="#1E3E3F" stroke-width="1.5" stroke-linecap="round" stroke-linejoin="round"></path>
        <path d="M42.8727855,28.8975717 C46.9218101,28.6445994 49.3626802,30.3944771 50.1953958,34.1472048" id="Path-3" stroke="#1E3E3F" stroke-width="1.5" stroke-linecap="round" stroke-linejoin="round"></path>
        <path d="M27.5,32 C26.1192881,32 25,30.8807119 25,29.5 C25,28.1192881 26.1192881,27 27.5,27 C28.8807119,27 30,28.1192881 30,29.5 C30,30.8807119 28.8807119,32 27.5,32 Z M42.5,38 C41.1192881,38 40,36.8807119 40,35.5 C40,34.1192881 41.1192881,33 42.5,33 C43.8807119,33 45,34.1192881 45,35.5 C45,36.8807119 43.8807119,38 42.5,38 Z" id="Combined-Shape" fill="#1E3E3F"></path>
        <path d="M28.8906533,54.9627308 C24.7793925,54.4579314 21.719371,51.8268204 22.0559039,49.0859799 C22.3924368,46.3451394 25.9980859,44.5324699 30.1093467,45.0372692 C34.2206075,45.5420686 37.280629,48.1731796 36.9440961,50.9140201 C36.6075632,53.6548606 33.0019141,55.4675301 28.8906533,54.9627308 Z M28.6871311,50.9753767 C30.8690719,51.3209622 32.7779606,50.7167083 32.9507534,49.6257379 C33.1235461,48.5347674 31.4948098,47.3702088 29.3128689,47.0246233 C27.1309281,46.6790378 25.2220394,47.2832917 25.0492466,48.3742621 C24.8764539,49.4652326 26.5051902,50.6297912 28.6871311,50.9753767 Z" id="Combined-Shape" fill="#1E3E3F"></path>
    </g>
</svg>