<?xml version="1.0" encoding="UTF-8"?>
<svg width="72px" height="72px" viewBox="0 0 72 72" version="1.1" xmlns="http://www.w3.org/2000/svg" xmlns:xlink="http://www.w3.org/1999/xlink">
    <!-- Generator: Sketch 50 (54983) - http://www.bohemiancoding.com/sketch -->
    <title>头像-面</title>
    <desc>Created with Sketch.</desc>
    <defs></defs>
    <g id="头像-面" stroke="none" stroke-width="1" fill="none" fill-rule="evenodd">
        <path d="M26.19369,73.1247138 C29.8263568,69.2346689 31.0372458,66.7866392 29.8263568,65.7806248 C28.0100234,64.2716031 7.52487096,55.2201104 7.52487096,41.639131 C7.52487096,28.0581515 15.3133133,13.592707 29.8263568,12.4620423 C44.3394004,11.3313775 57.5047885,18.235427 62.1205223,30.3957185 C65.1976782,38.5025795 61.4952513,49.6522671 51.0132415,63.8447812 C49.9036884,67.0603559 51.2796151,70.1536668 55.1410216,73.1247138 C55.1410216,73.1247138 45.4919111,73.1247138 26.19369,73.1247138 Z" id="Path" stroke="#FFFFFF" stroke-width="2"></path>
        <path d="M26.19369,73.1247138 C29.8263568,69.2346689 31.0372458,66.7866392 29.8263568,65.7806248 C28.0100234,64.2716031 7.52487096,55.2201104 7.52487096,41.639131 C7.52487096,28.0581515 15.3133133,13.592707 29.8263568,12.4620423 C44.3394004,11.3313775 57.5047885,18.235427 62.1205223,30.3957185 C65.1976782,38.5025795 61.4952513,49.6522671 51.0132415,63.8447812 C49.9036884,67.0603559 51.2796151,70.1536668 55.1410216,73.1247138 C55.1410216,73.1247138 45.4919111,73.1247138 26.19369,73.1247138 Z M22.602484,25.1627525 C24.8731894,23.4817264 27.8452615,23.0578032 31.5739381,23.9230653 C31.9774301,24.016698 32.3804294,23.7655075 32.4740621,23.3620155 C32.5676949,22.9585236 32.3165044,22.5555243 31.9130124,22.4618916 C27.7844959,21.5038442 24.3650717,21.9915757 21.7099779,23.9571684 C21.3770651,24.2036272 21.3069802,24.6733006 21.5534389,25.0062135 C21.7998976,25.3391263 22.2695711,25.4092112 22.602484,25.1627525 Z M42.9195523,29.6461122 C46.6071591,29.4157204 48.7121087,30.9247742 49.463205,34.3096751 C49.5529349,34.7140529 49.9534883,34.9691255 50.3578661,34.8793956 C50.762244,34.7896658 51.0173165,34.3891123 50.9275867,33.9847345 C50.0132517,29.8641801 47.2364611,27.8734785 42.8260187,28.1490312 C42.4126112,28.1748598 42.0984164,28.530931 42.124245,28.9443385 C42.1500736,29.357746 42.5061448,29.6719408 42.9195523,29.6461122 Z M27.5,32 C28.8807119,32 30,30.8807119 30,29.5 C30,28.1192881 28.8807119,27 27.5,27 C26.1192881,27 25,28.1192881 25,29.5 C25,30.8807119 26.1192881,32 27.5,32 Z M42.5,38 C43.8807119,38 45,36.8807119 45,35.5 C45,34.1192881 43.8807119,33 42.5,33 C41.1192881,33 40,34.1192881 40,35.5 C40,36.8807119 41.1192881,38 42.5,38 Z M28.8906533,54.9627308 C33.0019141,55.4675301 36.6075632,53.6548606 36.9440961,50.9140201 C37.280629,48.1731796 34.2206075,45.5420686 30.1093467,45.0372692 C25.9980859,44.5324699 22.3924368,46.3451394 22.0559039,49.0859799 C21.719371,51.8268204 24.7793925,54.4579314 28.8906533,54.9627308 Z" id="Combined-Shape" fill="#FFFFFF"></path>
        <path d="M28.6871311,50.9753767 C30.8690719,51.3209622 32.7779606,50.7167083 32.9507534,49.6257379 C33.1235461,48.5347674 31.4948098,47.3702088 29.3128689,47.0246233 C27.1309281,46.6790378 25.2220394,47.2832917 25.0492466,48.3742621 C24.8764539,49.4652326 26.5051902,50.6297912 28.6871311,50.9753767 Z" id="Combined-Shape" fill="#FFFFFF"></path>
    </g>
</svg>